<svg xmlns="http://www.w3.org/2000/svg" viewBox="0 0 64 64"><defs><style>.cls-1{fill:#eaa242;}.cls-2{fill:#ffb74d;}.cls-3{fill:#37474f;}.cls-4{fill:#aa752e;}</style></defs><title>Animal Dog</title><g id="Layer_2" data-name="Layer 2"><g id="Layer_1-2" data-name="Layer 1"><path class="cls-1" d="M56,34a8,8,0,0,1-8-8c0-6.75-7.5-10.81-7.58-10.84A8,8,0,1,1,47.58.85C53.68,3.9,64,12.63,64,26A8,8,0,0,1,56,34Z"/><path class="cls-1" d="M8,34a8,8,0,0,1-8-8C0,12.63,10.32,3.9,16.42.85a8,8,0,0,1,7.21,14.28C23.38,15.26,16,19.28,16,26A8,8,0,0,1,8,34Z"/><path class="cls-2" d="M54.83,46.39A18.71,18.71,0,0,1,36.16,64H27.84A18.71,18.71,0,0,1,9.17,46.39a19.09,19.09,0,0,1,.2-4l4.16-26.61A18.7,18.7,0,0,1,30,.11a18.26,18.26,0,0,1,4,0,18.67,18.67,0,0,1,16.47,15.7l4.16,26.61A19.09,19.09,0,0,1,54.83,46.39Z"/><circle class="cls-3" cx="24" cy="22" r="4"/><circle class="cls-3" cx="40" cy="22" r="4"/><path class="cls-4" d="M40,44c0-3.31-3.58-4-8-4s-8,.69-8,4,3.58,8,8,8S40,47.32,40,44Z"/><rect class="cls-4" x="31" y="50" width="2" height="14"/></g></g></svg>